{
  "accessors": [
    {
      "bufferView": 1,
      "componentType": 5126,
      "count": 3,
      "max": [
        1.0,
        -0.0,
        1.0
      ],
      "min": [
        0.0,
        -0.0,
        0.0
      ],
      "type": "VEC3"
    },
    {
      "bufferView": 1,
      "byteOffset": 36,
      "componentType": 5126,
      "count": 3,
      "max": [
        1.0,
        -0.0,
        0.0
      ],
      "min": [
        1.0,
        -0.0,
        0.0
      ],
      "type": "VEC3"
    },
    {
      "bufferView": 0,
      "componentType": 5125,
      "count": 3,
      "type": "SCALAR"
    }
  ],
  "asset": {
    "extras": {
      "author": "moroplogo (https://sketchfab.com/moroplogo)",
      "license": "CC-BY-4.0 (http://creativecommons.org/licenses/by/4.0/)",
      "source": "https://sketchfab.com/3d-models/rainbow-2-976dc2db6cd4451fb3c13f587d579606",
      "title": "rainbow 2"
    },
    "generator": "Sketchfab-14.5.0",
    "version": "2.0"
  },
  "bufferViews": [
    {
      "buffer": 0,
      "byteLength": 12,
      "name": "floatBufferViews",
      "target": 34963
    },
    {
      "buffer": 0,
      "byteLength": 72,
      "byteOffset": 12,
      "byteStride": 12,
      "name": "floatBufferViews",
      "target": 34962
    }
  ],
  "buffers": [
    {
      "byteLength": 84,
      "uri": "scene.bin"
    }
  ],
  "extensionsRequired": [
    "KHR_materials_pbrSpecularGlossiness"
  ],
  "extensionsUsed": [
    "KHR_materials_pbrSpecularGlossiness"
  ],
  "materials": [
    {
      "doubleSided": true,
      "extensions": {
        "KHR_materials_pbrSpecularGlossiness": {
          "diffuseFactor": [
            1.0,
            1.0,
            1.0,
            1.0
          ],
          "glossinessFactor": 0.75,
          "specularFactor": [
            0.1,
            0.1,
            0.1
          ]
        }
      },
      "name": "material_0"
    }
  ],
  "meshes": [
    {
      "name": "Object_0",
      "primitives": [
        {
          "attributes": {
            "NORMAL": 1,
            "POSITION": 0
          },
          "indices": 2,
          "material": 0,
          "mode": 4
        }
      ]
    }
  ],
  "nodes": [
    {
      "children": [
        1
      ],
      "matrix": [
        -6.661338147750939e-16,
        1.0,
        4.978995983325726e-17,
        0.0,
        -6.162975822039155e-32,
        -4.978995983325726e-17,
        1.0,
        0.0,
        1.0,
        7.771561172376096e-16,
        1.1093356479670479e-31,
        0.0,
        0.0,
        0.0,
        0.0,
        1.0
      ],
      "name": "Sketchfab_model"
    },
    {
      "children": [
        2
      ],
      "name": "55ae16d6a4054eafbb206fd3541604b4.obj.cleaner.materialmerger.gles"
    },
    {
      "mesh": 0,
      "name": "Object_2"
    }
  ],
  "scene": 0,
  "scenes": [
    {
      "name": "Sketchfab_Scene",
      "nodes": [
        0
      ]
    }
  ]
}
